<?xml version="1.0" standalone="no"?><svg xmlns="http://www.w3.org/2000/svg" viewBox="0 0 1440 320"><path fill="#00cba9" fill-opacity="1" d="M0,192L6.2,165.3C12.3,139,25,85,37,58.7C49.2,32,62,32,74,53.3C86.2,75,98,117,111,138.7C123.1,160,135,160,148,186.7C160,213,172,267,185,266.7C196.9,267,209,213,222,170.7C233.8,128,246,96,258,106.7C270.8,117,283,171,295,165.3C307.7,160,320,96,332,69.3C344.6,43,357,53,369,80C381.5,107,394,149,406,170.7C418.5,192,431,192,443,165.3C455.4,139,468,85,480,101.3C492.3,117,505,203,517,245.3C529.2,288,542,288,554,250.7C566.2,213,578,139,591,112C603.1,85,615,107,628,106.7C640,107,652,85,665,85.3C676.9,85,689,107,702,133.3C713.8,160,726,192,738,192C750.8,192,763,160,775,170.7C787.7,181,800,235,812,261.3C824.6,288,837,288,849,272C861.5,256,874,224,886,224C898.5,224,911,256,923,245.3C935.4,235,948,181,960,160C972.3,139,985,149,997,149.3C1009.2,149,1022,139,1034,133.3C1046.2,128,1058,128,1071,117.3C1083.1,107,1095,85,1108,112C1120,139,1132,213,1145,202.7C1156.9,192,1169,96,1182,53.3C1193.8,11,1206,21,1218,48C1230.8,75,1243,117,1255,160C1267.7,203,1280,245,1292,266.7C1304.6,288,1317,288,1329,266.7C1341.5,245,1354,203,1366,165.3C1378.5,128,1391,96,1403,90.7C1415.4,85,1428,107,1434,117.3L1440,128L1440,320L1433.8,320C1427.7,320,1415,320,1403,320C1390.8,320,1378,320,1366,320C1353.8,320,1342,320,1329,320C1316.9,320,1305,320,1292,320C1280,320,1268,320,1255,320C1243.1,320,1231,320,1218,320C1206.2,320,1194,320,1182,320C1169.2,320,1157,320,1145,320C1132.3,320,1120,320,1108,320C1095.4,320,1083,320,1071,320C1058.5,320,1046,320,1034,320C1021.5,320,1009,320,997,320C984.6,320,972,320,960,320C947.7,320,935,320,923,320C910.8,320,898,320,886,320C873.8,320,862,320,849,320C836.9,320,825,320,812,320C800,320,788,320,775,320C763.1,320,751,320,738,320C726.2,320,714,320,702,320C689.2,320,677,320,665,320C652.3,320,640,320,628,320C615.4,320,603,320,591,320C578.5,320,566,320,554,320C541.5,320,529,320,517,320C504.6,320,492,320,480,320C467.7,320,455,320,443,320C430.8,320,418,320,406,320C393.8,320,382,320,369,320C356.9,320,345,320,332,320C320,320,308,320,295,320C283.1,320,271,320,258,320C246.2,320,234,320,222,320C209.2,320,197,320,185,320C172.3,320,160,320,148,320C135.4,320,123,320,111,320C98.5,320,86,320,74,320C61.5,320,49,320,37,320C24.6,320,12,320,6,320L0,320Z"></path></svg>